<svg xmlns="http://www.w3.org/2000/svg" x="0px" y="0px" viewBox="0 0 172 172">
    <g transform="">
        <g fill="none" fill-rule="nonzero" stroke="none" stroke-width="1" stroke-linecap="butt" stroke-linejoin="miter" stroke-miterlimit="10" stroke-dasharray="" stroke-dashoffset="0" font-family="none" font-weight="none" font-size="none" text-anchor="none" style="mix-blend-mode: normal">
            <path d="M0,172v-172h172v172z" fill="none"></path>
            <g fill="#FFFFFF">
                <g id="surface1">
                    <path d="M91.16,0c-3.44,3.78938 -5.84531,8.62688 -6.88,13.4375c-2.75469,-3.09062 -6.49031,-5.83187 -10.965,-7.2025c2.06938,5.16 2.66063,9.21813 3.01,13.0075c-3.44,-3.44 -8.57312,-6.20812 -15.8025,-6.5575c6.88,5.16 6.92031,12.40281 6.235,16.8775c-0.84656,0.18813 -1.58562,0.36281 -2.2575,0.5375c-1.66625,0.36281 -2.6875,0.645 -2.6875,0.645c-34.54781,9.31219 -58.3725,37.12781 -58.3725,69.015c0,39.82875 37.03375,72.24 82.56,72.24c45.52625,0 82.56,-32.41125 82.56,-72.24c0,-31.87375 -24.05312,-59.95812 -58.695,-68.9075c-0.01344,-0.01344 0.01344,-0.09406 0,-0.1075c0,0 -0.9675,-0.29562 -2.58,-0.645c-1.38406,-3.19812 -3.95062,-12.30875 3.87,-17.415c-5.16,0 -9.37937,1.37063 -12.47,3.44c-1.03469,-5.50937 -3.39969,-11.31437 -7.525,-16.125zM68.8,41.28c5.60344,0 11.11281,0.95406 17.2,3.01c6.08719,-2.05594 11.59656,-3.01 17.2,-3.01c30.34188,0 55.04,26.23 55.04,58.48c0,32.25 -24.69812,58.48 -55.04,58.48c-5.59,0 -11.11281,-0.95406 -17.2,-3.01c-6.08719,2.05594 -11.61,3.01 -17.2,3.01c-30.34187,0 -55.04,-26.23 -55.04,-58.48c0,-32.25 24.69813,-58.48 55.04,-58.48zM68.8,48.16c-26.48531,0 -48.16,23.04531 -48.16,51.6c0,28.55469 21.67469,51.6 48.16,51.6c6.19469,0 11.69063,-1.37062 17.2,-3.44c5.50938,2.06938 11.00531,3.44 17.2,3.44c26.48531,0 48.16,-23.04531 48.16,-51.6c0,-28.55469 -21.67469,-51.6 -48.16,-51.6c-6.19469,0 -11.69062,1.37063 -17.2,3.44c-5.50937,-2.06937 -11.00531,-3.44 -17.2,-3.44zM61.92,55.04c3.80281,0 6.88,3.07719 6.88,6.88c0,3.80281 -3.07719,6.88 -6.88,6.88c-3.80281,0 -6.88,-3.07719 -6.88,-6.88c0,-3.80281 3.07719,-6.88 6.88,-6.88zM110.08,55.04c3.80281,0 6.88,3.07719 6.88,6.88c0,3.80281 -3.07719,6.88 -6.88,6.88c-3.80281,0 -6.88,-3.07719 -6.88,-6.88c0,-3.80281 3.07719,-6.88 6.88,-6.88zM86,65.36c3.80281,0 6.88,3.07719 6.88,6.88c0,3.80281 -3.07719,6.88 -6.88,6.88c-3.80281,0 -6.88,-3.07719 -6.88,-6.88c0,-3.80281 3.07719,-6.88 6.88,-6.88zM44.72,72.24c3.80281,0 6.88,3.07719 6.88,6.88c0,3.80281 -3.07719,6.88 -6.88,6.88c-3.80281,0 -6.88,-3.07719 -6.88,-6.88c0,-3.80281 3.07719,-6.88 6.88,-6.88zM127.28,72.24c3.80281,0 6.88,3.07719 6.88,6.88c0,3.80281 -3.07719,6.88 -6.88,6.88c-3.80281,0 -6.88,-3.07719 -6.88,-6.88c0,-3.80281 3.07719,-6.88 6.88,-6.88zM66.435,73.315c3.80281,0 6.88,3.07719 6.88,6.88c0,3.80281 -3.07719,6.88 -6.88,6.88c-3.80281,0 -6.88,-3.07719 -6.88,-6.88c0,-3.80281 3.07719,-6.88 6.88,-6.88zM105.565,73.315c3.80281,0 6.88,3.07719 6.88,6.88c0,3.80281 -3.07719,6.88 -6.88,6.88c-3.80281,0 -6.88,-3.07719 -6.88,-6.88c0,-3.80281 3.07719,-6.88 6.88,-6.88zM34.4,92.88c3.80281,0 6.88,3.07719 6.88,6.88c0,3.80281 -3.07719,6.88 -6.88,6.88c-3.80281,0 -6.88,-3.07719 -6.88,-6.88c0,-3.80281 3.07719,-6.88 6.88,-6.88zM58.48,92.88c3.80281,0 6.88,3.07719 6.88,6.88c0,3.80281 -3.07719,6.88 -6.88,6.88c-3.80281,0 -6.88,-3.07719 -6.88,-6.88c0,-3.80281 3.07719,-6.88 6.88,-6.88zM86,92.88c3.80281,0 6.88,3.07719 6.88,6.88c0,3.80281 -3.07719,6.88 -6.88,6.88c-3.80281,0 -6.88,-3.07719 -6.88,-6.88c0,-3.80281 3.07719,-6.88 6.88,-6.88zM113.52,92.88c3.80281,0 6.88,3.07719 6.88,6.88c0,3.80281 -3.07719,6.88 -6.88,6.88c-3.80281,0 -6.88,-3.07719 -6.88,-6.88c0,-3.80281 3.07719,-6.88 6.88,-6.88zM137.6,92.88c3.80281,0 6.88,3.07719 6.88,6.88c0,3.80281 -3.07719,6.88 -6.88,6.88c-3.80281,0 -6.88,-3.07719 -6.88,-6.88c0,-3.80281 3.07719,-6.88 6.88,-6.88zM66.435,112.445c3.80281,0 6.88,3.07719 6.88,6.88c0,3.80281 -3.07719,6.88 -6.88,6.88c-3.80281,0 -6.88,-3.07719 -6.88,-6.88c0,-3.80281 3.07719,-6.88 6.88,-6.88zM105.565,112.445c3.80281,0 6.88,3.07719 6.88,6.88c0,3.80281 -3.07719,6.88 -6.88,6.88c-3.80281,0 -6.88,-3.07719 -6.88,-6.88c0,-3.80281 3.07719,-6.88 6.88,-6.88zM44.72,113.52c3.80281,0 6.88,3.07719 6.88,6.88c0,3.80281 -3.07719,6.88 -6.88,6.88c-3.80281,0 -6.88,-3.07719 -6.88,-6.88c0,-3.80281 3.07719,-6.88 6.88,-6.88zM127.28,113.52c3.80281,0 6.88,3.07719 6.88,6.88c0,3.80281 -3.07719,6.88 -6.88,6.88c-3.80281,0 -6.88,-3.07719 -6.88,-6.88c0,-3.80281 3.07719,-6.88 6.88,-6.88zM86,120.4c3.80281,0 6.88,3.07719 6.88,6.88c0,3.80281 -3.07719,6.88 -6.88,6.88c-3.80281,0 -6.88,-3.07719 -6.88,-6.88c0,-3.80281 3.07719,-6.88 6.88,-6.88zM61.92,130.72c3.80281,0 6.88,3.07719 6.88,6.88c0,3.80281 -3.07719,6.88 -6.88,6.88c-3.80281,0 -6.88,-3.07719 -6.88,-6.88c0,-3.80281 3.07719,-6.88 6.88,-6.88zM110.08,130.72c3.80281,0 6.88,3.07719 6.88,6.88c0,3.80281 -3.07719,6.88 -6.88,6.88c-3.80281,0 -6.88,-3.07719 -6.88,-6.88c0,-3.80281 3.07719,-6.88 6.88,-6.88z"></path>
                </g>
            </g>
            <path d="" fill="none"></path>
            <path d="" fill="none"></path>
        </g>
    </g>
</svg>
