<?xml version="1.0" encoding="UTF-8"?>
<svg width="20px" height="24px" viewBox="0 0 20 24" version="1.1" xmlns="http://www.w3.org/2000/svg" xmlns:xlink="http://www.w3.org/1999/xlink">
    <!-- Generator: Sketch 44.1 (41455) - http://www.bohemiancoding.com/sketch -->
    <title>edit-color</title>
    <desc>Created with Sketch.</desc>
    <defs></defs>
    <g id="Page-1" stroke="none" stroke-width="1" fill="none" fill-rule="evenodd">
        <g id="edit-color" transform="translate(-2.000000, 0.000000)" fill-rule="nonzero">
            <rect id="Rectangle-path" fill="#000000" opacity="0" x="0" y="0" width="24" height="24"></rect>
            <path d="M19.2,0.9 C18.3,0.3 17.3,0 16.2,0 C16.2,0 16.2,0 16.2,0 C14.4,0 12.7,0.9 11.7,2.4 L2.6,16.4 C2.3,16.8 2.3,17.2 2.3,17.7 L3.3,22.6 C3.4,23.1 3.7,23.5 4,23.7 C4.3,23.9 4.6,24 5,24 C5.1,24 5.1,24 5.2,24 C5.2,24 5.3,24 5.3,24 L10.4,23 C10.9,22.9 11.3,22.6 11.5,22.2 L20.6,8.3 C22.3,5.8 21.7,2.5 19.2,0.9 Z M9.1,19.6 L6.5,20.1 L6,17.7 L14.7,4.3 C15,3.8 15.6,3.5 16.2,3.5 C16.6,3.5 16.9,3.6 17.2,3.8 C18,4.4 18.3,5.5 17.7,6.4 L9.1,19.6 Z" id="Shape" fill="#231F20"></path>
        </g>
    </g>
</svg>
